<?xml version="1.0" encoding="utf-8"?>
<!-- Generator: Adobe Illustrator 16.0.4, SVG Export Plug-In . SVG Version: 6.00 Build 0)  -->
<!DOCTYPE svg PUBLIC "-//W3C//DTD SVG 1.1//EN" "http://www.w3.org/Graphics/SVG/1.1/DTD/svg11.dtd">
<svg version="1.1" id="Layer_1" xmlns="http://www.w3.org/2000/svg" xmlns:xlink="http://www.w3.org/1999/xlink" x="0px" y="0px"
	 width="200px" height="31.234px" viewBox="0 0 200 31.234" enable-background="new 0 0 200 31.234" xml:space="preserve">
<g>
	<g>
		<g>
			<path fill="#F07D31" d="M114.989,23.688c0,5.059-4.426,7.031-8.741,7.031c-3.72,0-6.808-1.079-7.775-1.972l1.673-5.58
				c1.897,1.191,4.241,1.896,5.767,1.896c0.818,0,1.934-0.261,1.934-1.189c0-2.083-7.961-0.336-8.37-6.213
				c-1.34-0.483-2.456-0.707-3.497-0.707c-2.493,0-3.981,1.338-4.278,2.94v10.527h-7.738v-8.78c-0.41,5.023-4.279,9.151-12.09,9.151
				c-6.436,0-10.714-3.273-11.421-8.779v8.408H53.05v-1.376c-1.6,1.227-3.46,1.897-5.543,1.897c-5.506,0-8.966-3.98-9.45-9.151
				c-0.409,4.874-4.129,9.151-12.09,9.151c-6.919,0-11.458-3.98-11.458-10.417v-0.929H8.184v10.825H0V2.372h19.047v6.547H7.961
				v3.719h10.528c2.083-1.375,4.501-2.38,7.478-2.38c7.366,0,11.495,4.316,12.09,9.637c0.186-5.321,3.794-9.637,9.45-9.637
				c2.12,0,3.943,0.521,5.543,1.525V1.627h7.403V19.41c0.669-5.171,5.394-9.152,11.421-9.152c7.588,0,11.68,4.464,12.09,9.971
				v-9.301h7.254v2.083c0.595-0.447,1.227-0.855,1.859-1.228c1.154-0.632,2.642-1.228,4.167-1.228c0.745,0,1.526,0.186,2.233,0.521
				v5.729c0.148-0.41,0.148-0.669,0.148-1.078c0.894-4.205,4.168-5.432,7.404-5.432c3.683,0,6.324,1.376,7.106,1.861l-1.563,5.133
				c-1.19-0.707-3.274-1.303-4.651-1.303c-0.781,0-1.189,0.261-1.189,0.893C106.731,18.889,114.989,17.959,114.989,23.688z
				 M30.208,20.526c0-2.195-1.488-3.943-3.981-3.943c-2.38,0-3.943,1.749-3.943,3.943c0,2.493,1.563,4.241,3.943,4.241
				C28.72,24.767,30.208,23.019,30.208,20.526z M53.756,20.526c0-2.195-1.674-3.943-3.98-3.943s-3.794,1.749-3.794,3.943
				c0,2.493,1.488,4.017,3.794,4.017S53.756,23.019,53.756,20.526z M76.189,20.526c0-2.195-1.675-3.943-3.98-3.943
				c-2.493,0-3.981,1.749-3.981,3.943c0,2.306,1.488,4.017,3.981,4.017C74.514,24.543,76.189,22.832,76.189,20.526z M104.982,9.551
				H98.1l5.023-8.146h6.734L104.982,9.551z"/>
		</g>
		<path fill="#F07D31" d="M124.157,5.043v25.378h-3.659V5.043h-7.036V1.709h17.73v3.334H124.157z"/>
		<path fill="#F07D31" d="M139.813,16.431c-0.515-0.353-0.937-0.596-1.261-0.732c-0.326-0.136-0.72-0.204-1.179-0.204
			c-0.462,0-0.883,0.096-1.261,0.285c-0.381,0.191-0.76,0.476-1.14,0.855c-0.597,0.596-1.004,1.321-1.22,2.176
			c-0.218,0.854-0.325,2.041-0.325,3.559v8.053h-3.377V12.689h3.377v2.765c0.785-1.084,1.558-1.877,2.318-2.378
			c0.758-0.501,1.585-0.752,2.479-0.752c0.543,0,1.072,0.088,1.587,0.264c0.515,0.176,1.07,0.467,1.667,0.874L139.813,16.431z"/>
		<path fill="#F07D31" d="M155.562,30.421v-2.807c-1.466,2.115-3.54,3.173-6.224,3.173c-1.219,0-2.339-0.224-3.354-0.671
			c-1.017-0.449-1.898-1.071-2.643-1.872c-0.748-0.8-1.323-1.755-1.73-2.867c-0.406-1.111-0.609-2.332-0.609-3.66
			c0-1.329,0.217-2.569,0.651-3.721c0.433-1.152,1.03-2.142,1.789-2.97c0.758-0.827,1.661-1.478,2.704-1.952
			s2.177-0.712,3.396-0.712c2.656,0,4.662,0.95,6.02,2.847v-2.522h3.212v17.732H155.562z M155.765,21.595
			c0-0.948-0.137-1.81-0.406-2.582c-0.271-0.772-0.665-1.437-1.18-1.993c-0.515-0.556-1.124-0.989-1.83-1.302
			c-0.704-0.311-1.478-0.467-2.317-0.467c-0.814,0-1.566,0.163-2.258,0.488s-1.288,0.773-1.789,1.342
			c-0.502,0.57-0.895,1.248-1.18,2.034c-0.284,0.787-0.427,1.641-0.427,2.562c0,1.844,0.522,3.329,1.565,4.454
			c1.044,1.125,2.42,1.687,4.128,1.687c1.763,0,3.152-0.555,4.168-1.667C155.257,25.039,155.765,23.521,155.765,21.595z"/>
		<path fill="#F07D31" d="M169.355,31.234h-0.406l-9.191-18.545h3.823l5.572,12.161l5.611-12.161h3.621L169.355,31.234z"/>
		<path fill="#F07D31" d="M180.482,22.166c0.107,1.789,0.651,3.199,1.628,4.23c0.976,1.03,2.277,1.544,3.903,1.544
			c1.084,0,2.062-0.263,2.929-0.792s1.667-1.363,2.398-2.501l2.238,1.708c-1.059,1.545-2.197,2.671-3.417,3.376
			c-1.22,0.704-2.644,1.058-4.271,1.058c-1.274,0-2.447-0.231-3.517-0.692c-1.071-0.46-1.994-1.098-2.767-1.911
			c-0.774-0.813-1.377-1.782-1.81-2.908c-0.434-1.125-0.651-2.366-0.651-3.721c0-1.329,0.21-2.555,0.631-3.681
			c0.421-1.125,1.011-2.095,1.77-2.908c0.76-0.813,1.66-1.45,2.704-1.912c1.043-0.46,2.188-0.691,3.437-0.691
			c1.247,0,2.38,0.217,3.396,0.65c1.017,0.434,1.878,1.051,2.583,1.851c0.704,0.8,1.255,1.764,1.646,2.888
			c0.394,1.126,0.59,2.393,0.59,3.803v0.61H180.482z M190.609,19.359c-0.218-1.328-0.759-2.38-1.626-3.152
			c-0.868-0.772-1.953-1.159-3.254-1.159c-1.302,0-2.394,0.38-3.273,1.138c-0.883,0.76-1.472,1.817-1.771,3.173H190.609z"/>
		<path fill="#F07D31" d="M196.625,30.421V0H200v30.421H196.625z"/>
	</g>
</g>
</svg>
