<svg id="Layer_1" data-name="Layer 1" xmlns="http://www.w3.org/2000/svg" viewBox="0 0 3426.41 1402.17"><title>Tripadvisor_Logo_vertical-lockup_registered_RGB</title><path d="M1729.81,625.41a100.94,100.94,0,1,1-100.93-100.93A100.93,100.93,0,0,1,1729.81,625.41Zm468.1-100.93a100.94,100.94,0,1,0,100.93,100.93A100.93,100.93,0,0,0,2197.91,524.48Zm284.62,100.93c0,157.14-127.49,284.52-284.62,284.52a283.44,283.44,0,0,1-193.3-75.78l-91.16,99.18-91.21-99.24a283.44,283.44,0,0,1-193.36,75.84c-157.13,0-284.52-127.38-284.52-284.52a283.82,283.82,0,0,1,92.81-210.27l-93.1-101.29H1551a639.52,639.52,0,0,1,362.4-111.72c135,0,259.72,41.17,363,111.72h206.38l-93.09,101.29A283.85,283.85,0,0,1,2482.53,625.41Zm-661.11,0c0-106.34-86.2-192.54-192.54-192.54s-192.55,86.2-192.55,192.54S1522.54,818,1628.88,818,1821.42,731.75,1821.42,625.41ZM2127.12,338a555.67,555.67,0,0,0-427.37,0c121.54,46.49,213.7,155.21,213.7,281.92C1913.45,493.17,2005.59,384.46,2127.12,338Zm263.33,287.44c0-106.34-86.2-192.54-192.54-192.54s-192.55,86.2-192.55,192.54S2091.57,818,2197.91,818,2390.45,731.75,2390.45,625.41Zm-1788.38,576v-60.15H509.81v358h92.26V1284.57c0-38.88,24.95-58,63.83-58h50.46v-85.37H673.23C639.49,1141.25,610.14,1158.85,602.07,1201.4ZM802.8,999.64c-31.54,0-55.75,24.94-55.75,56.49a55.75,55.75,0,0,0,111.5,0C858.55,1024.58,834.34,999.64,802.8,999.64Zm-46,499.57h92v-358h-92Zm530.46-179c0,102.19-82.84,185-185,185a178.06,178.06,0,0,1-108.62-36.32V1604.3h-92v-463h92v30.27a178.06,178.06,0,0,1,108.62-36.32C1204.41,1135.2,1287.25,1218,1287.25,1320.23Zm-92.62,0a100.51,100.51,0,1,0-100.51,100.51A100.51,100.51,0,0,0,1194.63,1320.23ZM2887,1288.83l-53.69-14.74c-35.32-9.19-49.09-20-49.09-38.7,0-18.2,19.34-30.91,47-30.91,26.36,0,47,17.28,47,39.33v2h84.82v-2c0-65-53-108.61-131.84-108.61-78.13,0-134.83,43.61-134.83,103.7,0,46.76,31,82,85,96.61l51.42,14c39.07,10.81,53.6,22.82,53.6,44.31,0,22.69-21,37.93-52.24,37.93-32.58,0-54.48-20.6-54.48-51.25v-2h-90v2c0,73.44,59.12,124.74,143.77,124.74,81.58,0,140.79-50.1,140.79-119.13C2974.27,1352.36,2959.13,1308.06,2887,1288.83ZM1613.77,1141.25h92v358h-92v-30.27a178.11,178.11,0,0,1-108.62,36.32c-102.19,0-185-82.84-185-185s82.84-185,185-185a178.11,178.11,0,0,1,108.62,36.32Zm0,179v0a100.51,100.51,0,1,0-100.51,100.52A100.51,100.51,0,0,0,1613.77,1320.22Zm424.36-306.41h92v485.38h-92v-30.27a178.06,178.06,0,0,1-108.61,36.32c-102.19,0-185-82.84-185-185s82.84-185,185-185a178.06,178.06,0,0,1,108.61,36.32Zm0,306.4a100.51,100.51,0,1,0-100.51,100.51A100.51,100.51,0,0,0,2038.13,1320.23Zm519.41,179h92v-358h-92Zm46-499.57c-31.54,0-55.75,24.94-55.75,56.49a55.76,55.76,0,0,0,111.51,0C2659.3,1024.58,2635.09,999.64,2603.54,999.64Zm768.57,320.59c0,102.19-82.84,185-185,185s-185-82.84-185-185,82.84-185,185-185S3372.11,1218,3372.11,1320.23Zm-84.51,0a100.51,100.51,0,1,0-100.51,100.51A100.51,100.51,0,0,0,3287.6,1320.23ZM554.94,1013.83H201.87V1096H332.55v403.26h91.71V1096H554.94ZM2340.5,1401.18l-81.87-259.93H2162l122.8,358h110.75l123.53-358h-96.68Zm1252.85,33.68a34.93,34.93,0,1,0,34.93,34.93A35,35,0,0,0,3593.35,1434.86Zm0,64.37a29.44,29.44,0,1,1,29.44-29.44A29.47,29.47,0,0,1,3593.35,1499.23Zm11.34-35.38c0-6.36-4.54-10.13-11.13-10.13h-11.17v31.8h5.49V1474h5.95l5.78,11.54h5.9l-6.36-12.72C3602.56,1471.3,3604.69,1468.21,3604.69,1463.85Zm-11.4,5.27h-5.41v-10.54h5.41c3.68,0,5.91,1.86,5.91,5.27S3597,1469.12,3593.29,1469.12Z" transform="translate(-201.87 -202.13)"/><path d="M3507,1201.4v-60.15h-92.26v358H3507V1284.57c0-38.88,24.94-58,63.82-58h50.47v-85.37h-43.14C3544.4,1141.25,3515.06,1158.85,3507,1201.4Z" transform="translate(-201.87 -202.13)"/></svg>